<?xml version="1.0" encoding="iso-8859-1"?>
<!-- Generator: Adobe Illustrator 25.2.3, SVG Export Plug-In . SVG Version: 6.00 Build 0)  -->
<svg version="1.1" baseProfile="basic" id="Layer_1"
	 xmlns="http://www.w3.org/2000/svg" xmlns:xlink="http://www.w3.org/1999/xlink" x="0px" y="0px" viewBox="0 0 48 48"
	 xml:space="preserve">
<path style="fill:none;stroke:#000000;stroke-width:2;stroke-linecap:round;stroke-linejoin:round;stroke-miterlimit:10;" d="M40,7
	H8C6.895,7,6,7.895,6,9v2c0,1.105,0.895,2,2,2h32c1.105,0,2-0.895,2-2V9C42,7.895,41.105,7,40,7z"/>
<path style="fill:none;stroke:#000000;stroke-width:2;stroke-linecap:round;stroke-linejoin:round;stroke-miterlimit:10;" d="M40,35
	H8c-1.105,0-2,0.895-2,2v2c0,1.105,0.895,2,2,2h32c1.105,0,2-0.895,2-2v-2C42,35.895,41.105,35,40,35z"/>
<path style="fill:none;stroke:#000000;stroke-width:2;stroke-linecap:round;stroke-linejoin:round;stroke-miterlimit:10;" d="M40,21
	H8c-1.105,0-2,0.895-2,2v2c0,1.105,0.895,2,2,2h32c1.105,0,2-0.895,2-2v-2C42,21.895,41.105,21,40,21z"/>
</svg>